<svg t="1712340363190" class="icon" viewBox="0 0 1024 1024" version="1.1" xmlns="http://www.w3.org/2000/svg" p-id="1621"
     width="200" height="200">
    <path d="M514.53836508 700.72566144a13.71149963 13.71149963 0 0 0-13.59056449 13.83179826v100.32525171a13.71149963 13.71149963 0 0 0 13.63893855 13.80824775 13.75987369 13.75987369 0 0 0 13.63893854-13.80761125v-100.32525171a13.78406073 13.78406073 0 0 0-13.68731259-13.83243476z m-49.14868012-3.50075427a13.56637746 13.56637746 0 0 0-13.4460788 13.66376208v67.47099134a13.54219042 13.54219042 0 0 0 13.4460788 13.63893855 13.51863989 13.51863989 0 0 0 13.42189178-13.66312557V710.88866925a13.54219042 13.54219042 0 0 0-13.42189178-13.66312557z m205.4306242-235.82226304C673.6686501 275.88812909 522.45643468 191.83247362 512.31761388 186.37702552V186.11160469l-0.28960784 0.12093516-0.26542083-0.12093516v0.26542083c-10.16300782 5.45544812-161.39941027 89.51110358-158.5268823 275.02561861-30.77799484 20.08478186-63.05303948 55.78738317-57.91138624 117.5616926 5.11746621 61.72529887 64.50171523 102.66630154 87.24134183 100.44618685 22.73962658-2.22138769 16.12574706-19.36044399 16.12574706-19.36044399l7.79713445-31.9854368s33.50540064 51.44199239 44.24826068 51.41780537c9.65571671-0.79626248 55.56969991-0.07256108 61.04997155 0h0.53084164c5.50382217-0.07256108 51.39361835-0.79626248 61.04997156 0 10.71803649 0 44.24826068-51.41780537 44.24826068-51.41780537l7.77294742 31.9854368s-6.59032898 17.13905628 16.1492976 19.35980748c22.74026309 2.22138769 82.09968858-38.72025147 87.24197831-100.44618684 5.09327918-61.74948591-27.15757844-97.47627425-57.95976029-117.5610561z m-158.79230312-2.72740582c-4.32120373-0.07256108-60.5184934-2.1488266-65.70915721-68.46075004 1.88340578-63.02948896 61.29120535-68.60587222 65.70915721-68.91966709 4.44150238 0.31379488 63.82575142 5.89017815 65.70852069 68.91966709-5.19002729 66.31192344-61.411504 68.38818895-65.70852069 68.46075004z m48.15892141 242.07397366a13.51863989 13.51863989 0 0 0-13.42189177 13.59120096v48.1347344a13.56637746 13.56637746 0 0 0 13.42189177 13.63957505 13.51863989 13.51863989 0 0 0 13.44607881-13.63957505v-48.1347344a13.51863989 13.51863989 0 0 0-13.44607881-13.59056448z"
          fill="#1a71db" p-id="1622"></path>
</svg>