<svg t="1713519762562" class="icon" viewBox="0 0 1024 1024" version="1.1" xmlns="http://www.w3.org/2000/svg" p-id="4724"
     width="200" height="200">
    <path d="M6.690133 81.022293l26.2144-4.87424 7.65952 41.198934-26.2144 4.870826z" fill="#1afa29" p-id="4725"></path>
    <path d="M466.858667 427.322027c0-2.819413-1.235627-5.328213-3.167574-7.082667l-0.027306-0.187733c-0.21504-0.098987-0.4096-0.228693-0.610987-0.341334a9.745067 9.745067 0 0 0-1.580373-0.976213 13.824 13.824 0 0 1-5.843627-11.267413c0-2.932053 0.928427-5.628587 2.47808-7.86432 0.539307-0.529067 1.010347-1.11616 1.457493-1.723734 0.150187-0.1536 0.269653-0.344747 0.426667-0.49152a0.33792 0.33792 0 0 0-0.006827-0.058026 13.868373 13.868373 0 0 0 2.310827-7.66976 13.851307 13.851307 0 0 0-3.60448-9.27744c0.01024-0.167253 0.047787-0.32768 0.047787-0.498347 0-2.11968-0.989867-3.98336-2.5088-5.225813-6.21568-38.273707-12.65664-84.066987-12.10368-129.829547 1.201493-99.826347 39.744853-199.33184 19.643733-219.436373-20.5824-20.5824-122.23488 15.957333-223.330987 16.513706-101.106347 0.566613-201.639253-34.84672-219.979093-16.50688-18.230613 18.230613 18.059947 118.524587 17.824427 219.436374-0.238933 102.137173-36.778667 204.909227-17.824427 223.863466 18.56512 18.568533 119.66464-23.10144 220.801707-24.046933 104.11008-0.979627 208.26112 38.28736 222.501546 24.046933 4.416853-4.416853 4.123307-17.44896 1.655467-36.37248 0.894293-1.460907 1.440427-3.160747 1.440427-5.003946z"
          fill="#1afa29" p-id="4726"></path>
    <path d="M552.79616 81.015467l26.207573-4.870827 7.65952 41.188693-26.207573 4.87424z" fill="#1afa29"
          p-id="4727"></path>
    <path d="M1012.992 427.322027c0-2.819413-1.23904-5.328213-3.170987-7.082667l-0.03072-0.187733c-0.21504-0.098987-0.406187-0.228693-0.610986-0.341334a9.629013 9.629013 0 0 0-1.583787-0.976213 13.824 13.824 0 0 1-5.843627-11.267413c0-2.932053 0.928427-5.628587 2.47808-7.86432a13.755733 13.755733 0 0 0 1.457494-1.723734c0.150187-0.1536 0.269653-0.344747 0.426666-0.49152-0.003413-0.017067-0.003413-0.04096-0.01024-0.058026a13.871787 13.871787 0 0 0 2.31424-7.66976 13.824 13.824 0 0 0-3.607893-9.27744c0.013653-0.167253 0.0512-0.32768 0.0512-0.498347 0-2.11968-0.989867-3.98336-2.5088-5.225813-6.212267-38.273707-12.653227-84.066987-12.100267-129.829547 1.201493-99.826347 39.744853-199.33184 19.64032-219.436373-20.578987-20.5824-122.23488 15.957333-223.330986 16.513706-101.096107 0.559787-201.629013-34.853547-219.968854-16.513706-18.234027 18.230613 18.056533 118.524587 17.824427 219.436373-0.238933 102.137173-36.775253 204.909227-17.824427 223.863467 18.56512 18.568533 119.661227-23.10144 220.801707-24.046934 104.11008-0.979627 208.26112 38.28736 222.501547 24.046934 4.420267-4.416853 4.12672-17.44896 1.65888-36.37248 0.89088-1.45408 1.437013-3.15392 1.437013-4.99712z"
          fill="#1afa29" p-id="4728"></path>
    <path d="M6.69696 620.356267l26.2144-4.87424 7.656107 41.192106-26.2144 4.87424z" fill="#1afa29" p-id="4729"></path>
    <path d="M466.858667 966.62528c0-2.816-1.235627-5.328213-3.167574-7.079253l-0.027306-0.187734c-0.21504-0.098987-0.4096-0.232107-0.610987-0.344746a9.990827 9.990827 0 0 0-1.580373-0.976214 13.824 13.824 0 0 1-5.843627-11.267413c0-2.92864 0.928427-5.625173 2.47808-7.86432 0.539307-0.529067 1.010347-1.11616 1.457493-1.723733 0.150187-0.157013 0.269653-0.34816 0.426667-0.494934a0.26624 0.26624 0 0 0-0.006827-0.054613 13.871787 13.871787 0 0 0 2.310827-7.673173 13.837653 13.837653 0 0 0-3.60448-9.274027c0.01024-0.170667 0.047787-0.32768 0.047787-0.498347 0-2.11968-0.989867-3.98336-2.5088-5.2224-6.21568-38.27712-12.65664-84.0704-12.10368-129.829546 1.201493-99.826347 39.744853-199.33184 19.643733-219.43296-20.5824-20.5824-122.23488 15.95392-223.330987 16.513706S38.8096 546.362027 20.466347 564.701867c-18.230613 18.230613 18.059947 118.524587 17.824426 219.43296-0.238933 102.140587-36.778667 204.909227-17.824426 223.86688 18.56512 18.56512 119.66464-23.10144 220.801706-24.050347 104.11008-0.976213 208.26112 38.290773 222.501547 24.050347 4.416853-4.420267 4.123307-17.44896 1.655467-36.37248 0.887467-1.457493 1.4336-3.157333 1.4336-5.003947z"
          fill="#1afa29" p-id="4730"></path>
    <path d="M552.79616 620.294827l26.207573-4.870827 7.656107 41.18528-26.207573 4.87424z" fill="#1afa29"
          p-id="4731"></path>
    <path d="M1012.992 966.62528c0-2.816-1.23904-5.328213-3.170987-7.079253l-0.03072-0.187734c-0.21504-0.098987-0.406187-0.232107-0.610986-0.344746a9.867947 9.867947 0 0 0-1.583787-0.976214 13.824 13.824 0 0 1-5.843627-11.267413c0-2.92864 0.928427-5.625173 2.47808-7.86432a13.755733 13.755733 0 0 0 1.457494-1.723733c0.150187-0.157013 0.269653-0.34816 0.426666-0.494934-0.003413-0.017067-0.003413-0.04096-0.01024-0.054613a13.806933 13.806933 0 0 0-1.293653-16.9472c0.013653-0.170667 0.0512-0.32768 0.0512-0.498347 0-2.11968-0.989867-3.98336-2.5088-5.2224-6.212267-38.27712-12.653227-84.0704-12.100267-129.829546 1.201493-99.826347 39.744853-199.33184 19.64032-219.43296-20.578987-20.5824-122.23488 15.95392-223.330986 16.513706s-201.629013-34.853547-219.968854-16.513706c-18.234027 18.230613 18.056533 118.524587 17.824427 219.43296-0.238933 102.140587-36.775253 204.909227-17.824427 223.86688 18.56512 18.56512 119.661227-23.10144 220.801707-24.050347 104.11008-0.976213 208.26112 38.290773 222.501547 24.050347 4.420267-4.420267 4.12672-17.44896 1.65888-36.37248 0.89088-1.457493 1.437013-3.157333 1.437013-5.003947z"
          fill="#1afa29" p-id="4732"></path>
</svg>