<svg t="1711015042162" class="icon" viewBox="0 0 1024 1024" version="1.1" xmlns="http://www.w3.org/2000/svg" p-id="5382"
     width="200" height="200">
    <path d="M851.2 339.2c-44.8 0-89.6 19.2-121.6 44.8l-384-211.2C345.6 76.8 268.8 0 172.8 0 76.8 0 0 76.8 0 172.8c0 96 76.8 172.8 172.8 172.8 38.4 0 70.4-12.8 96-32L627.2 512l-358.4 192c-25.6-19.2-64-32-96-32-96 0-172.8 76.8-172.8 172.8C0 947.2 76.8 1024 172.8 1024s172.8-76.8 172.8-172.8c0 0 0 0 0 0l384-211.2c32 25.6 70.4 44.8 115.2 44.8 96 0 172.8-76.8 172.8-172.8C1024 416 947.2 339.2 851.2 339.2zM172.8 236.8c-38.4 0-64-32-64-64 0-38.4 32-64 64-64s64 32 64 64C243.2 211.2 211.2 236.8 172.8 236.8zM172.8 915.2c-38.4 0-64-32-64-64 0-38.4 32-64 64-64s64 32 64 64C236.8 889.6 211.2 915.2 172.8 915.2zM851.2 576c-38.4 0-64-32-64-64 0-38.4 32-64 64-64 38.4 0 64 32 64 64C915.2 550.4 889.6 576 851.2 576z"
          fill="#231815" p-id="5383"></path>
</svg>