<svg t="1713519796329" class="icon" viewBox="0 0 1025 1024" version="1.1" xmlns="http://www.w3.org/2000/svg" p-id="5774"
     width="200" height="200">
    <path d="M0.257086 118.094877C-3.815151 57.01132 40.979458 5.42965 102.063015 0h16.288948l393.649591 9.501887c25.790835 1.357412 50.224258 12.216711 67.870619 31.220484l414.010775 414.010776c42.079784 42.079784 42.079784 111.307815-1.357412 153.387599L608.377833 992.26845c-42.079784 42.079784-109.950403 42.079784-153.387599 1.357412L40.979458 578.257674c-19.003773-17.646361-29.863072-42.079784-31.220485-67.870619L0.257086 118.094877z"
          fill="#13227a" p-id="5775"></path>
    <path d="M233.732016 225.330455m-108.592991 0a108.59299 108.59299 0 1 0 217.185981 0 108.59299 108.59299 0 1 0-217.185981 0Z"
          fill="#13227a" p-id="5776"></path>
</svg>